<?xml version="1.0" encoding="UTF-8"?>
<svg id="text" xmlns="http://www.w3.org/2000/svg" xmlns:xlink="http://www.w3.org/1999/xlink" viewBox="0 0 265.22 293.14">
  <defs>
    <style>
      .cls-1 {
        fill: #002d37;
      }

      .cls-1, .cls-2, .cls-3 {
        stroke-width: 0px;
      }

      .cls-2 {
        fill: #00e089;
      }

      .cls-3 {
        fill: #00dc87;
      }
    </style>
    <symbol id="_新增符號_3" data-name="新增符號 3" viewBox="0 0 480 100">
      <g>
        <path class="cls-1" d="M68.37,46.69L104.92,2.73h-26.17l-30.68,36.9c-.89,1.06-2.19,1.67-3.57,1.67h-18.03c-2.54,0-4.6-2.06-4.6-4.6V2.73H0v97.27h21.88v-33.97c0-2.54,2.06-4.6,4.6-4.6h18.03c1.38,0,2.69.61,3.57,1.67l30.68,36.9h26.17l-36.55-43.96c-2.25-2.71-2.25-6.64,0-9.35Z"/>
        <path class="cls-1" d="M165.97,1h-38.59c-2.54,0-4.6,2.06-4.6,4.6v89.8c0,2.54,2.06,4.6,4.6,4.6h38.59c18.03,0,33.6,0,44.37-6.18,11.51-6.6,16.87-20.37,16.87-43.32C227.21,1,202.84,1,165.97,1ZM172.79,81.64h-24.79c-1.93,0-3.5-1.57-3.5-3.5V22.86c0-1.93,1.57-3.5,3.5-3.5h24.79c25.67,0,31.17,2.68,31.17,31.15s-5.5,31.13-31.17,31.13Z"/>
        <path class="cls-1" d="M299.98,0c-23.62,0-29.9,2.85-37.28,25.02-6.04,18.14-21,63.6-24.75,74.98h21.75l7.51-22.72c.62-1.88,2.38-3.16,4.37-3.16h56.67c1.98,0,3.74,1.27,4.36,3.14l7.59,22.73h21.78l-25.06-74.98c-7.46-22.32-13.25-25.02-36.94-25.02ZM279.03,56.2c-2.39,0-4.07-2.34-3.32-4.6l5.33-16.07c4.17-12.49,5.11-16.44,18.81-16.44s14.63,3.96,18.81,16.44l5.37,16.07c.76,2.27-.93,4.61-3.32,4.61h-41.68Z"/>
        <path class="cls-1" d="M454.94,96.54l-49.55-58.2c-1.21-1.42-3.52-.56-3.52,1.3v60.37h-22.69V8.73c0-3.87,3.13-7,7-7h12.45c2.05,0,4,.9,5.33,2.46l49.55,58.2c1.21,1.42,3.52.56,3.52-1.3V1.73h22.97v90.27c0,3.87-3.13,7-7,7h-12.73c-2.05,0-4-.9-5.33-2.46Z"/>
      </g>
    </symbol>
  </defs>
  <use width="480" height="100" transform="translate(48.86 209.39) scale(.35)" xlink:href="#_新增符號_3"/>
  <g>
    <g>
      <path class="cls-2" d="M134.39,155.6V52.43c0-3.18-3.84-4.77-6.09-2.52l-57.46,57.46c-1.39,1.39-1.39,3.65,0,5.04l51.13,51.13c2.98-4,7.37-6.89,12.42-7.95Z"/>
      <path class="cls-3" d="M191.85,118.21h-45.57c-1.97,0-3.57,1.6-3.57,3.57v33.78c5.09,1.01,9.51,3.88,12.54,7.87l39.13-39.13c2.25-2.25.66-6.09-2.52-6.09Z"/>
    </g>
    <circle class="cls-1" cx="138.66" cy="175.96" r="12.48"/>
  </g>
</svg>